<svg viewBox="0 0 300 45" fill="none" xmlns="http://www.w3.org/2000/svg"><path d="M69.8899 0C56.7474 0 47.8604 8.96314 47.8604 22.2187C47.8604 35.4743 56.5975 44.0984 69.9661 44.0984C79.9833 44.0984 87.5902 38.6388 90.3765 29.7495H83.1847C81.1135 35.0222 76.2928 37.8454 69.9291 37.8454C61.3051 37.8454 55.5434 32.7249 54.6023 24.5529H91.0177V22.2187C91.0177 8.88703 82.5827 0 69.8922 0L69.8899 0ZM54.713 19.5016C55.8801 11.1082 61.5657 6.21377 69.8507 6.21377C78.1358 6.21377 83.2193 11.1474 84.3495 19.5016H54.713Z" fill="var(--icon, #fff)"></path><path d="M22.0688 6.25067C28.4325 6.25067 33.2531 9.07616 35.3244 14.3466H42.5161C39.7298 5.45954 32.1229 0 22.1057 0C8.7371 0 0 8.69789 0 21.8797C0 21.9396 0.00230652 21.9996 0.00230652 22.0596C0.00230652 22.1126 0 22.1657 0 22.2187V24.5529H36.4154C35.4743 32.7249 29.7126 37.8454 21.0885 37.8454C14.7248 37.8454 9.9042 35.0199 7.83295 29.7495H0.641213C3.42749 38.6365 11.0344 44.0984 21.0516 44.0984C34.4202 44.0984 43.1573 35.4005 43.1573 22.2187C43.1573 22.168 43.155 22.1195 43.155 22.0688C43.155 22.0065 43.1573 21.9442 43.1573 21.8797V19.5455H6.73966C7.68072 11.3735 13.4424 6.25298 22.0665 6.25298L22.0688 6.25067Z" fill="var(--icon, #fff)"></path><path d="M145.463 19.6562H139.058C138.126 7.73146 129.645 0 117.042 0C107.025 0 99.418 5.45954 96.6317 14.3489H103.823C105.895 9.07616 110.715 6.25298 117.079 6.25298C125.703 6.25298 131.465 11.3735 132.406 19.5455H95.9905V21.8797C95.9905 35.2114 104.425 44.0984 117.116 44.0984C129.806 44.0984 137.9 36.3254 139.019 24.5529H145.461V19.6562H145.463ZM117.155 37.8846C109.285 37.8846 103.787 32.951 102.656 24.5529H132.293C131.126 32.9879 125.44 37.8846 117.155 37.8846Z" fill="var(--icon, #fff)"></path><path d="M155.533 16.953C156.193 17.412 157.056 17.6449 158.096 17.6449C158.679 17.6449 159.215 17.5342 159.687 17.3151C160.16 17.096 160.536 16.7846 160.801 16.3925C161.069 15.9981 161.203 15.5506 161.203 15.0639C161.203 14.5288 161.06 14.0929 160.778 13.7723C160.502 13.454 160.158 13.2095 159.759 13.0411C159.367 12.8751 158.841 12.7067 158.195 12.536C157.609 12.3792 157.134 12.2269 156.784 12.0885C156.438 11.9524 156.142 11.7518 155.907 11.4934C155.676 11.242 155.559 10.9053 155.559 10.4924C155.559 10.0288 155.769 9.62747 156.179 9.30225C156.597 8.97242 157.132 8.80635 157.771 8.80635C158.532 8.80635 159.136 8.99548 159.563 9.36914C159.99 9.74049 160.223 10.2295 160.255 10.8199V10.8822H161.154L161.15 10.813C161.104 9.94808 160.772 9.26073 160.165 8.76714C159.561 8.27816 158.76 8.02905 157.787 8.02905C157.192 8.02905 156.65 8.13977 156.179 8.35889C155.706 8.578 155.333 8.88016 155.065 9.25612C154.798 9.63439 154.662 10.0496 154.662 10.4924C154.662 11.0944 154.816 11.5834 155.118 11.9455C155.418 12.303 155.787 12.5752 156.214 12.7551C156.634 12.9304 157.192 13.1126 157.872 13.2925C158.433 13.4378 158.882 13.5762 159.208 13.6985C159.526 13.8184 159.794 13.9937 160.008 14.2174C160.216 14.4366 160.322 14.7226 160.322 15.0639C160.322 15.5622 160.121 15.9889 159.724 16.3325C159.325 16.6785 158.776 16.8515 158.094 16.8515C157.261 16.8515 156.597 16.6785 156.117 16.3371C155.642 15.9981 155.374 15.5345 155.319 14.9555L155.314 14.8956H154.401L154.408 14.9671C154.489 15.8228 154.867 16.4894 155.531 16.953H155.533Z" fill="var(--icon, #fff)"></path><path d="M166.948 16.4179L163.544 8.18825L163.525 8.14673H162.552L166.455 17.4443L164.713 21.8429H165.636L171.024 8.23668L171.058 8.14673H170.136L166.948 16.4179Z" fill="var(--icon, #fff)"></path><path d="M180.774 10.3056C180.476 9.68051 180.019 9.15693 179.413 8.74407C178.714 8.26892 177.877 8.02674 176.929 8.02674C176.059 8.02674 175.275 8.2251 174.592 8.61259C173.909 9.0024 173.37 9.56519 172.987 10.2871C172.604 11.0068 172.41 11.8579 172.41 12.8174C172.41 13.7769 172.604 14.6303 172.987 15.3546C173.37 16.0811 173.912 16.6508 174.592 17.0475C175.273 17.442 176.059 17.6426 176.929 17.6426C177.914 17.6426 178.76 17.3958 179.447 16.9092C180.04 16.4894 180.485 15.9589 180.771 15.3292V17.5088H181.666V4.79761H180.771V10.3056H180.774ZM177.03 16.833C176.308 16.833 175.658 16.6693 175.1 16.3487C174.541 16.0281 174.101 15.5621 173.792 14.9648C173.48 14.3651 173.324 13.6431 173.324 12.8197C173.324 11.9963 173.48 11.2743 173.792 10.6746C174.101 10.0772 174.539 9.61362 175.093 9.29994C175.646 8.98394 176.299 8.82479 177.032 8.82479C177.766 8.82479 178.373 8.99086 178.938 9.31839C179.503 9.64592 179.955 10.1164 180.282 10.7208C180.61 11.3251 180.776 12.0332 180.776 12.822C180.776 13.6108 180.612 14.3351 180.292 14.9417C179.971 15.546 179.519 16.0165 178.949 16.3441C178.379 16.6716 177.734 16.8376 177.035 16.8376L177.03 16.833Z" fill="var(--icon, #fff)"></path><path d="M192.502 17.5088H193.397V4.79761H192.502V10.3056C192.205 9.68051 191.748 9.15693 191.142 8.74407C190.443 8.26892 189.605 8.02674 188.657 8.02674C187.788 8.02674 187.004 8.2251 186.321 8.61259C185.638 9.0024 185.098 9.56519 184.716 10.2871C184.333 11.0068 184.139 11.8579 184.139 12.8174C184.139 13.7769 184.333 14.6303 184.716 15.3546C185.098 16.0811 185.64 16.6508 186.321 17.0475C187.001 17.442 187.788 17.6426 188.657 17.6426C189.642 17.6426 190.489 17.3958 191.176 16.9092C191.769 16.4894 192.214 15.9589 192.5 15.3292V17.5088H192.502ZM188.761 16.833C188.039 16.833 187.389 16.6693 186.831 16.3487C186.272 16.0281 185.832 15.5621 185.523 14.9648C185.211 14.3651 185.055 13.6431 185.055 12.8197C185.055 11.9963 185.211 11.2743 185.523 10.6746C185.832 10.0772 186.27 9.61362 186.824 9.29994C187.377 8.98394 188.03 8.82479 188.763 8.82479C189.497 8.82479 190.104 8.99086 190.669 9.31839C191.234 9.64592 191.686 10.1164 192.013 10.7208C192.341 11.3251 192.507 12.0332 192.507 12.822C192.507 13.6108 192.343 14.3351 192.023 14.9417C191.702 15.546 191.25 16.0165 190.68 16.3441C190.11 16.6716 189.465 16.8376 188.766 16.8376L188.761 16.833Z" fill="var(--icon, #fff)"></path><path d="M204.231 15.3429V17.5087H205.126V8.14655H204.231V10.3008C203.943 9.68731 203.497 9.16834 202.905 8.75317C202.217 8.2711 201.368 8.02661 200.386 8.02661C199.516 8.02661 198.732 8.22497 198.049 8.61247C197.367 9.00227 196.827 9.56506 196.444 10.287C196.061 11.0066 195.867 11.8577 195.867 12.8173C195.867 13.7768 196.061 14.6302 196.444 15.3544C196.827 16.081 197.369 16.6507 198.049 17.0474C198.73 17.4418 199.516 17.6425 200.386 17.6425C201.359 17.6425 202.203 17.3957 202.898 16.909C203.495 16.4892 203.943 15.9634 204.231 15.3406V15.3429ZM200.49 16.8329C199.768 16.8329 199.117 16.6691 198.559 16.3485C198.001 16.0279 197.56 15.562 197.251 14.9646C196.94 14.3649 196.783 13.643 196.783 12.8196C196.783 11.9961 196.94 11.2742 197.251 10.6745C197.56 10.0771 197.999 9.6135 198.552 9.29981C199.106 8.98382 199.759 8.82467 200.492 8.82467C201.225 8.82467 201.832 8.99074 202.397 9.31826C202.962 9.64579 203.414 10.1163 203.742 10.7206C204.069 11.3249 204.235 12.033 204.235 12.8219C204.235 13.6107 204.072 14.3349 203.751 14.9416C203.431 15.5459 202.978 16.0164 202.409 16.3439C201.839 16.6715 201.193 16.8375 200.494 16.8375L200.49 16.8329Z" fill="var(--icon, #fff)"></path><path d="M208.968 12.462C208.968 11.2396 209.264 10.3031 209.843 9.685C210.422 9.06685 211.21 8.75316 212.184 8.75316C213.157 8.75316 213.858 9.04148 214.398 9.60888C214.938 10.1786 215.212 11.0112 215.212 12.0884V17.5087H216.091V12.0376C216.091 10.6999 215.736 9.67577 215.035 8.99073C214.333 8.308 213.415 7.95972 212.304 7.95972C211.501 7.95972 210.784 8.14885 210.17 8.52251C209.642 8.84312 209.241 9.28827 208.968 9.84876V8.14655H208.073V17.5087H208.968V12.462Z" fill="var(--icon, #fff)"></path><path d="M223.76 13.0387C223.368 12.8726 222.842 12.7042 222.196 12.5336C221.61 12.3767 221.135 12.2245 220.785 12.0861C220.439 11.95 220.144 11.7493 219.908 11.491C219.678 11.2396 219.56 10.9028 219.56 10.49C219.56 10.0264 219.77 9.62503 220.18 9.29981C220.598 8.96998 221.133 8.80391 221.772 8.80391C222.533 8.80391 223.137 8.99304 223.564 9.3667C223.991 9.73805 224.224 10.227 224.256 10.8175V10.8798H225.156L225.151 10.8106C225.105 9.94564 224.773 9.25829 224.166 8.7647C223.562 8.27572 222.761 8.02661 221.788 8.02661C221.193 8.02661 220.651 8.13732 220.18 8.35644C219.708 8.57556 219.334 8.87772 219.066 9.25368C218.799 9.63195 218.663 10.0471 218.663 10.49C218.663 11.092 218.817 11.581 219.119 11.9431C219.419 12.3006 219.788 12.5728 220.215 12.7527C220.635 12.928 221.193 13.1102 221.873 13.2901C222.434 13.4354 222.884 13.5738 223.209 13.696C223.527 13.816 223.795 13.9913 224.009 14.215C224.217 14.4341 224.323 14.7201 224.323 15.0615C224.323 15.5597 224.122 15.9864 223.726 16.3301C223.327 16.6761 222.778 16.8491 222.095 16.8491C221.262 16.8491 220.598 16.6761 220.118 16.3347C219.643 15.9956 219.375 15.532 219.32 14.9531L219.315 14.8931H218.402L218.409 14.9646C218.49 15.8203 218.868 16.4869 219.532 16.9505C220.192 17.4095 221.055 17.6425 222.095 17.6425C222.678 17.6425 223.213 17.5318 223.686 17.3127C224.159 17.0935 224.535 16.7822 224.8 16.3901C225.068 15.9956 225.202 15.5482 225.202 15.0615C225.202 14.5264 225.059 14.0905 224.777 13.7698C224.501 13.4515 224.157 13.2071 223.758 13.0387H223.76Z" fill="var(--icon, #fff)"></path><path d="M228.585 13.3733L232.523 17.5088H233.759L229.174 12.8035L233.708 8.14668H232.453L228.585 12.2292V4.79761H227.69V17.5088H228.585V13.3733Z" fill="var(--icon, #fff)"></path><path d="M161.364 26.9124C160.705 26.5296 159.92 26.3335 159.028 26.3335C158.135 26.3335 157.353 26.5272 156.666 26.9124C155.978 27.2976 155.434 27.8581 155.051 28.58C154.668 29.2997 154.475 30.1554 154.475 31.1264C154.475 32.0975 154.671 32.9555 155.06 33.6821C155.45 34.4086 155.997 34.976 156.684 35.3658C157.372 35.7556 158.16 35.9517 159.028 35.9517C160.181 35.9517 161.152 35.6518 161.906 35.0614C162.663 34.4709 163.14 33.689 163.325 32.7364L163.341 32.658H162.409L162.398 32.711C162.243 33.463 161.862 34.0627 161.267 34.4986C160.67 34.9368 159.916 35.1582 159.028 35.1582C158.384 35.1582 157.782 35.0175 157.238 34.7408C156.696 34.464 156.253 34.0442 155.921 33.4906C155.598 32.9509 155.418 32.282 155.388 31.4978H163.352L163.359 31.4401C163.382 31.2325 163.394 30.9212 163.394 30.5152C163.394 29.7817 163.221 29.0875 162.875 28.4532C162.531 27.8166 162.022 27.2999 161.362 26.9147L161.364 26.9124ZM159.012 27.1108C159.644 27.1108 160.241 27.2492 160.785 27.5214C161.327 27.7912 161.761 28.2087 162.075 28.7623C162.381 29.302 162.524 29.9663 162.501 30.739H155.39C155.42 29.9663 155.602 29.302 155.93 28.7646C156.267 28.211 156.71 27.7935 157.247 27.5214C157.784 27.2492 158.38 27.1131 159.012 27.1131V27.1108Z" fill="var(--icon, #fff)"></path><path d="M167.869 26.8134C167.375 27.1178 167.004 27.5422 166.761 28.0774V26.4536H165.866V35.8157H166.761V30.43C166.761 29.2883 167.057 28.4556 167.64 27.9551C168.226 27.4523 168.971 27.1986 169.859 27.1986H170.18V26.269H170.115C169.211 26.269 168.457 26.4536 167.871 26.8134H167.869Z" fill="var(--icon, #fff)"></path><path d="M179.067 27.2977C178.365 26.615 177.452 26.2667 176.352 26.2667C175.552 26.2667 174.83 26.4559 174.209 26.8295C173.676 27.1501 173.27 27.5953 172.998 28.1558V23.1045H172.103V35.8157H172.998V30.7691C172.998 29.5466 173.293 28.6102 173.872 27.992C174.451 27.3739 175.24 27.0602 176.213 27.0602C177.187 27.0602 177.888 27.3485 178.428 27.9159C178.967 28.4856 179.242 29.3183 179.242 30.3954V35.8157H180.121V30.3447C180.121 29.0069 179.766 27.9828 179.064 27.2977H179.067Z" fill="var(--icon, #fff)"></path><path d="M186.176 34.743L182.838 26.4949L182.822 26.4534H181.846L185.707 35.774L185.726 35.8155H186.611L190.491 26.4534H189.532L186.176 34.743Z" fill="var(--icon, #fff)"></path><path d="M198.711 26.9124C198.052 26.5296 197.267 26.3335 196.375 26.3335C195.482 26.3335 194.7 26.5272 194.013 26.9124C193.326 27.2976 192.781 27.8581 192.398 28.58C192.016 29.2997 191.822 30.1554 191.822 31.1264C191.822 32.0975 192.018 32.9555 192.408 33.6821C192.797 34.4086 193.344 34.976 194.031 35.3658C194.719 35.7556 195.508 35.9517 196.375 35.9517C197.528 35.9517 198.499 35.6518 199.253 35.0614C200.01 34.4709 200.487 33.689 200.672 32.7364L200.688 32.658H199.756L199.745 32.711C199.59 33.463 199.21 34.0627 198.614 34.4986C198.017 34.9368 197.263 35.1582 196.375 35.1582C195.731 35.1582 195.129 35.0175 194.585 34.7408C194.043 34.464 193.6 34.0442 193.268 33.4906C192.945 32.9509 192.765 32.282 192.735 31.4978H200.7L200.706 31.4401C200.73 31.2325 200.741 30.9212 200.741 30.5152C200.741 29.7817 200.568 29.0875 200.222 28.4532C199.878 27.8166 199.369 27.2999 198.709 26.9147L198.711 26.9124ZM196.359 27.1108C196.991 27.1108 197.588 27.2492 198.132 27.5214C198.674 27.7912 199.108 28.2087 199.422 28.7623C199.729 29.302 199.872 29.9663 199.848 30.739H192.737C192.767 29.9663 192.95 29.302 193.277 28.7646C193.614 28.211 194.057 27.7935 194.594 27.5214C195.132 27.2492 195.727 27.1131 196.359 27.1131V27.1108Z" fill="var(--icon, #fff)"></path><path d="M205.216 26.8134C204.722 27.1178 204.351 27.5422 204.109 28.0774V26.4536H203.214V35.8157H204.109V30.43C204.109 29.2883 204.404 28.4556 204.988 27.9551C205.573 27.4523 206.318 27.1986 207.206 27.1986H207.527V26.269H207.462C206.558 26.269 205.804 26.4536 205.218 26.8134H205.216Z" fill="var(--icon, #fff)"></path><path d="M212.643 34.743L209.305 26.4949L209.289 26.4534H208.313L212.175 35.774L212.193 35.8155H213.079L216.958 26.4534H215.999L212.643 34.743Z" fill="var(--icon, #fff)"></path><path d="M223.573 31.3456C223.181 31.1795 222.655 31.0111 222.01 30.8404C221.424 30.6836 220.949 30.5314 220.598 30.393C220.252 30.2569 219.957 30.0562 219.721 29.7979C219.491 29.5465 219.373 29.2097 219.373 28.7969C219.373 28.3333 219.583 27.9319 219.994 27.6067C220.411 27.2769 220.946 27.1108 221.585 27.1108C222.346 27.1108 222.951 27.2999 223.377 27.6736C223.804 28.0449 224.037 28.5339 224.069 29.1244V29.1867H224.969L224.964 29.1175C224.918 28.2525 224.586 27.5652 223.979 27.0716C223.375 26.5826 222.575 26.3335 221.601 26.3335C221.006 26.3335 220.464 26.4442 219.994 26.6633C219.521 26.8824 219.147 27.1846 218.88 27.5606C218.612 27.9388 218.476 28.354 218.476 28.7969C218.476 29.3989 218.631 29.8878 218.933 30.25C219.233 30.6075 219.602 30.8797 220.028 31.0596C220.448 31.2349 221.006 31.4171 221.687 31.597C222.247 31.7423 222.697 31.8807 223.022 32.0029C223.34 32.1229 223.608 32.2982 223.822 32.5219C224.03 32.741 224.136 33.027 224.136 33.3684C224.136 33.8666 223.935 34.2933 223.539 34.637C223.14 34.983 222.591 35.1559 221.908 35.1559C221.075 35.1559 220.411 34.983 219.931 34.6416C219.456 34.3025 219.189 33.8389 219.133 33.26L219.129 33.2H218.215L218.222 33.2715C218.303 34.1272 218.681 34.7938 219.346 35.2574C220.005 35.7164 220.868 35.9494 221.908 35.9494C222.492 35.9494 223.027 35.8387 223.5 35.6196C223.972 35.4004 224.348 35.0891 224.614 34.6969C224.881 34.3025 225.015 33.8551 225.015 33.3684C225.015 32.8333 224.872 32.3973 224.591 32.0767C224.314 31.7584 223.97 31.5139 223.571 31.3456H223.573Z" fill="var(--icon, #fff)"></path><path d="M235.392 28.6077C235.104 27.9942 234.659 27.4752 234.066 27.0601C233.378 26.578 232.53 26.3335 231.547 26.3335C230.677 26.3335 229.893 26.5319 229.211 26.9194C228.528 27.3092 227.988 27.8719 227.605 28.5939C227.222 29.3135 227.029 30.1646 227.029 31.1241C227.029 32.0837 227.222 32.9371 227.605 33.6613C227.988 34.3879 228.53 34.9576 229.211 35.3543C229.891 35.7487 230.677 35.9494 231.547 35.9494C232.52 35.9494 233.365 35.7026 234.059 35.2159C234.656 34.7961 235.104 34.2702 235.392 33.6475V35.8133H236.287V26.4511H235.392V28.6054V28.6077ZM231.649 35.1398C230.927 35.1398 230.276 34.976 229.718 34.6554C229.16 34.3348 228.719 33.8689 228.41 33.2715C228.099 32.6718 227.942 31.9499 227.942 31.1264C227.942 30.303 228.099 29.5811 228.41 28.9814C228.719 28.384 229.157 27.9204 229.711 27.6067C230.265 27.2907 230.917 27.1316 231.651 27.1316C232.384 27.1316 232.991 27.2976 233.556 27.6251C234.121 27.9527 234.573 28.4232 234.901 29.0275C235.228 29.6318 235.394 30.3399 235.394 31.1288C235.394 31.9176 235.231 32.6418 234.91 33.2484C234.589 33.8528 234.137 34.3233 233.568 34.6508C232.998 34.9783 232.352 35.1444 231.653 35.1444L231.649 35.1398Z" fill="var(--icon, #fff)"></path><path d="M245.25 26.4536H243.995L240.13 30.5361V23.1045H239.232V35.8157H240.13V31.6801L244.065 35.8157H245.301L240.716 31.1104L245.25 26.4536Z" fill="var(--icon, #fff)"></path><path d="M254.838 28.6077C254.55 27.9942 254.105 27.4752 253.512 27.0601C252.825 26.578 251.976 26.3335 250.993 26.3335C250.124 26.3335 249.34 26.5319 248.657 26.9194C247.974 27.3092 247.434 27.8719 247.051 28.5939C246.669 29.3135 246.475 30.1646 246.475 31.1241C246.475 32.0837 246.669 32.9371 247.051 33.6613C247.434 34.3879 247.976 34.9576 248.657 35.3543C249.337 35.7487 250.124 35.9494 250.993 35.9494C251.967 35.9494 252.811 35.7026 253.505 35.2159C254.103 34.7961 254.55 34.2702 254.838 33.6475V35.8133H255.733V26.4511H254.838V28.6054V28.6077ZM251.095 35.1398C250.373 35.1398 249.722 34.976 249.164 34.6554C248.606 34.3348 248.166 33.8689 247.856 33.2715C247.545 32.6718 247.388 31.9499 247.388 31.1264C247.388 30.303 247.545 29.5811 247.856 28.9814C248.166 28.384 248.604 27.9204 249.157 27.6067C249.711 27.2907 250.364 27.1316 251.097 27.1316C251.831 27.1316 252.437 27.2976 253.002 27.6251C253.567 27.9527 254.019 28.4232 254.347 29.0275C254.675 29.6318 254.841 30.3399 254.841 31.1288C254.841 31.9176 254.677 32.6418 254.356 33.2484C254.036 33.8528 253.584 34.3233 253.014 34.6508C252.444 34.9783 251.798 35.1444 251.099 35.1444L251.095 35.1398Z" fill="var(--icon, #fff)"></path><path d="M266.567 28.6125C266.27 27.9874 265.813 27.4638 265.206 27.051C264.507 26.5758 263.67 26.3336 262.722 26.3336C261.853 26.3336 261.068 26.532 260.386 26.9195C259.703 27.3093 259.163 27.8721 258.78 28.594C258.397 29.3136 258.204 30.1648 258.204 31.1243C258.204 32.0838 258.397 32.9372 258.78 33.6614C259.163 34.388 259.705 34.9577 260.386 35.3544C261.066 35.7488 261.853 35.9495 262.722 35.9495C263.707 35.9495 264.553 35.7027 265.241 35.216C265.834 34.7962 266.279 34.2658 266.565 33.6361V35.8157H267.46V23.1045H266.565V28.6125H266.567ZM262.826 35.1399C262.104 35.1399 261.454 34.9762 260.895 34.6556C260.337 34.3349 259.897 33.869 259.588 33.2716C259.276 32.6719 259.119 31.95 259.119 31.1266C259.119 30.3031 259.276 29.5812 259.588 28.9815C259.897 28.3841 260.335 27.9205 260.888 27.6068C261.442 27.2908 262.095 27.1317 262.828 27.1317C263.562 27.1317 264.168 27.2977 264.733 27.6253C265.298 27.9528 265.751 28.4233 266.078 29.0276C266.406 29.6319 266.572 30.3401 266.572 31.1289C266.572 31.9177 266.408 32.642 266.087 33.2486C265.767 33.8529 265.315 34.3234 264.745 34.6509C264.175 34.9785 263.529 35.1445 262.831 35.1445L262.826 35.1399Z" fill="var(--icon, #fff)"></path><path d="M276.822 26.9124C276.162 26.5296 275.378 26.3335 274.485 26.3335C273.593 26.3335 272.811 26.5272 272.123 26.9124C271.436 27.2976 270.892 27.8581 270.509 28.58C270.126 29.2997 269.932 30.1554 269.932 31.1264C269.932 32.0975 270.128 32.9555 270.518 33.6821C270.908 34.4086 271.454 34.976 272.142 35.3658C272.829 35.7556 273.618 35.9517 274.485 35.9517C275.638 35.9517 276.61 35.6518 277.364 35.0614C278.12 34.4709 278.598 33.689 278.782 32.7364L278.798 32.658H277.867L277.855 32.711C277.7 33.463 277.32 34.0627 276.725 34.4986C276.127 34.9368 275.373 35.1582 274.485 35.1582C273.842 35.1582 273.24 35.0175 272.695 34.7408C272.153 34.464 271.71 34.0442 271.378 33.4906C271.055 32.9509 270.875 32.282 270.846 31.4978H278.81L278.817 31.4401C278.84 31.2325 278.851 30.9212 278.851 30.5152C278.851 29.7817 278.678 29.0875 278.332 28.4532C277.989 27.8166 277.479 27.2999 276.819 26.9147L276.822 26.9124ZM274.469 27.1108C275.101 27.1108 275.698 27.2492 276.243 27.5214C276.785 27.7912 277.218 28.2087 277.532 28.7623C277.839 29.302 277.982 29.9663 277.959 30.739H270.848C270.878 29.9663 271.06 29.302 271.388 28.7646C271.724 28.211 272.167 27.7935 272.705 27.5214C273.242 27.2492 273.837 27.1131 274.469 27.1131V27.1108Z" fill="var(--icon, #fff)"></path><path d="M292.301 26.2666C291.452 26.2666 290.702 26.4903 290.07 26.9332C289.491 27.3391 289.081 27.925 288.848 28.6792C288.606 27.925 288.2 27.3391 287.637 26.9332C287.021 26.4903 286.281 26.2666 285.432 26.2666C284.664 26.2666 283.974 26.4557 283.384 26.8294C282.876 27.15 282.487 27.6067 282.217 28.1902V26.4534H281.322V35.8156H282.217V30.8381C282.217 29.6134 282.503 28.6677 283.068 28.0265C283.631 27.3876 284.385 27.0624 285.314 27.0624C286.244 27.0624 286.922 27.3507 287.434 27.9158C287.948 28.4855 288.207 29.3181 288.207 30.3953V35.8156H289.086V30.8381C289.086 29.6134 289.372 28.6677 289.937 28.0265C290.499 27.3876 291.254 27.0624 292.183 27.0624C293.113 27.0624 293.791 27.3507 294.303 27.9158C294.815 28.4832 295.076 29.3181 295.076 30.3953V35.8156H295.954V30.3445C295.954 29.0067 295.611 27.9827 294.933 27.2976C294.254 26.6126 293.369 26.2666 292.303 26.2666H292.301Z" fill="var(--icon, #fff)"></path><path d="M299.725 26.4534H298.831V35.8155H299.725V26.4534Z" fill="var(--icon, #fff)"></path><path d="M299.792 23.2773C299.656 23.1412 299.486 23.072 299.287 23.072C299.089 23.072 298.918 23.1412 298.782 23.2773C298.646 23.4134 298.577 23.5887 298.577 23.7986C298.577 24.02 298.646 24.1999 298.784 24.3314C298.921 24.4629 299.091 24.5274 299.287 24.5274C299.483 24.5274 299.654 24.4605 299.792 24.3314C299.931 24.1999 300 24.0223 300 23.7986C300 23.5887 299.931 23.4134 299.795 23.2773H299.792Z" fill="var(--icon, #fff)"></path></svg>